<svg width="205" height="49" viewBox="0 0 205 49" fill="none" xmlns="http://www.w3.org/2000/svg">
<g clip-path="url(#clip0_31_1106)">
<path fill-rule="evenodd" clip-rule="evenodd" d="M75.8115 33.4768H81.4933V22.2208L89.5984 33.4768H95.7104V14.7168H90.0223V25.9728L81.9236 14.7168H75.8115V33.4768Z" fill="#1F2972"/>
<path fill-rule="evenodd" clip-rule="evenodd" d="M50.3701 33.4768H55.938L57.6464 29.497H66.4031L68.1114 33.4768H73.6793L65.5805 14.7168H58.4752L50.3701 33.4768ZM59.1269 26.0867L62.0247 19.4052L64.9225 26.0867H59.1269Z" fill="#1F2972"/>
<path fill-rule="evenodd" clip-rule="evenodd" d="M32.041 18.1271H39.7159V33.4768H45.3977V18.1271H53.0725V14.7168H32.041V18.1271Z" fill="#1F2972"/>
<path d="M29.4777 14.7168H23.7959V33.4768H29.4777V14.7168Z" fill="#1F2972"/>
<path fill-rule="evenodd" clip-rule="evenodd" d="M0.208984 18.1271H7.88384V33.4768H13.5656V18.1271H21.2405V14.7168H0.208984V18.1271Z" fill="#1F2972"/>
<path d="M105.253 6.41553H100.026V41.778H105.253V6.41553Z" fill="#1F2972"/>
<path fill-rule="evenodd" clip-rule="evenodd" d="M140.444 30.0668H146.695C147.346 30.0668 147.688 29.8074 147.688 29.2696V18.9247C147.688 18.3869 147.346 18.1274 146.695 18.1274H140.444C139.792 18.1274 139.45 18.3805 139.45 18.9247V29.2696C139.45 29.8074 139.792 30.0668 140.444 30.0668Z" fill="#1F2972"/>
<path fill-rule="evenodd" clip-rule="evenodd" d="M134.503 41.7783V38.6906H204.545V9.50344H134.503V6.41578H130.808V4.86565H155.231V0.019043H118.97V0.0253715C116.572 0.164569 114.674 2.15762 114.674 4.58725C114.674 7.11177 116.717 9.15544 119.242 9.15544C121.671 9.15544 123.665 7.2573 123.804 4.85932H125.866C125.847 5.39713 125.759 5.91596 125.62 6.40946C125.594 6.49171 125.569 6.57396 125.544 6.65622L125.537 6.66887C125.468 6.87767 125.386 7.08646 125.297 7.28893V7.29526L125.246 7.40915C125.227 7.44711 125.208 7.48507 125.189 7.52304V7.52936C125.132 7.64958 125.069 7.76347 125.006 7.87736L125 7.88369L124.943 7.98492L124.936 7.99757C124.892 8.0735 124.848 8.1431 124.797 8.21902C124.772 8.25699 124.746 8.28862 124.721 8.32659L124.652 8.42782L124.645 8.44048L124.576 8.53538L124.569 8.54171L124.563 8.54804L124.493 8.64294L124.487 8.64927C124.462 8.68091 124.436 8.71254 124.411 8.74418C124.354 8.81378 124.297 8.87705 124.24 8.94665C124.215 8.97828 124.183 9.00992 124.158 9.04156L124.152 9.04788C124.095 9.11115 124.038 9.1681 123.981 9.22504L123.956 9.25035L123.88 9.32628L123.873 9.3326L123.785 9.41486L123.766 9.43384L123.696 9.50344L123.684 9.51609C123.652 9.5414 123.627 9.56671 123.595 9.59202L123.576 9.60467L123.5 9.66794L123.481 9.6806C122.336 10.6297 120.862 11.2054 119.255 11.2054C117.647 11.2054 116.167 10.6297 115.022 9.6806L114.927 9.59835C114.895 9.57304 114.863 9.5414 114.832 9.51609L114.819 9.50977L114.731 9.42751L114.724 9.42119C114.693 9.38955 114.661 9.36424 114.629 9.3326L114.547 9.25035L114.522 9.24402C114.37 9.09217 114.224 8.92767 114.092 8.76316C113.984 8.63029 113.876 8.49109 113.782 8.34557L113.706 8.23801C113.661 8.16841 113.611 8.09248 113.566 8.01656L113.56 8.0039L113.503 7.90267L113.497 7.89634C113.434 7.78245 113.37 7.66856 113.313 7.54835V7.54202L113.256 7.42813L113.206 7.31424V7.30791C113.117 7.10544 113.035 6.90298 112.965 6.68785L112.959 6.6752C112.934 6.59294 112.908 6.51069 112.883 6.42844C112.719 5.84636 112.63 5.23895 112.63 4.60623C112.63 3.84065 112.763 3.1067 112.997 2.42336L110.245 4.1317V6.42844H107.385V41.7909H110.245V44.0877L112.997 45.796C112.757 45.1127 112.63 44.3787 112.63 43.6132C112.63 42.9804 112.719 42.3667 112.883 41.7909C112.908 41.7087 112.934 41.6264 112.959 41.5442L112.965 41.5315C113.035 41.3227 113.117 41.1139 113.206 40.9115V40.9051L113.256 40.7912L113.313 40.6774V40.671C113.37 40.5508 113.434 40.4369 113.497 40.323L113.503 40.3167L113.56 40.2155L113.566 40.2028C113.611 40.1269 113.655 40.0573 113.706 39.9814C113.731 39.9434 113.756 39.9054 113.782 39.8738C113.883 39.7283 113.984 39.5891 114.092 39.4562C114.231 39.2854 114.37 39.1272 114.522 38.9753L114.534 38.9627L114.617 38.8804C114.648 38.8488 114.68 38.8235 114.712 38.7919L114.718 38.7855L114.807 38.7033L114.819 38.6906L114.914 38.6084L115.009 38.5261C116.161 37.5707 117.635 37.0013 119.242 37.0013C120.849 37.0013 122.323 37.5707 123.468 38.5261L123.494 38.5451L123.57 38.6084L123.582 38.621L123.671 38.697L123.696 38.7223L123.766 38.7855L123.778 38.7982L123.785 38.8045L123.861 38.8804L123.88 38.8994L123.962 38.9817L124.044 39.0639L124.057 39.0766C124.114 39.1399 124.171 39.1968 124.228 39.2601L124.234 39.2664C124.291 39.3297 124.342 39.3929 124.399 39.4625L124.405 39.4689L124.481 39.5638L124.487 39.5701L124.55 39.6524L124.569 39.6777L124.639 39.7726L124.645 39.7852L124.709 39.8738L124.715 39.8865L124.721 39.8991C124.765 39.9687 124.81 40.032 124.854 40.1016V40.1079L124.86 40.1142L124.917 40.2091L124.93 40.2281L124.987 40.3294V40.3357L125.05 40.4433L125.057 40.4559L125.113 40.5635V40.5698L125.164 40.6774L125.177 40.7027L125.227 40.8039L125.234 40.8166L125.24 40.8229L125.284 40.9178L125.297 40.9494L125.341 41.057V41.0633L125.386 41.1772V41.1835L125.43 41.3037V41.3101C125.461 41.3923 125.487 41.4683 125.512 41.5505L125.518 41.5758C125.544 41.6517 125.563 41.7277 125.588 41.7973C125.734 42.2971 125.822 42.8223 125.841 43.3601H123.778C123.639 40.9621 121.646 39.0639 119.217 39.0639C116.692 39.0639 114.648 41.1076 114.648 43.6321C114.648 46.0618 116.546 48.0548 118.944 48.194V48.2004H155.205V43.3537H130.783V41.8036H134.503V41.7783ZM178.527 14.717H184.209V21.9679L191.738 14.717H198.705L190.663 22.4741L198.989 33.4707H192.624L186.968 25.9983L184.209 28.6684V33.4707H178.527V14.717ZM156.926 18.5829C156.926 15.9951 158.546 14.717 161.76 14.717H175.117V18.1274H163.608C162.956 18.1274 162.615 18.3804 162.615 18.9246V29.2695C162.615 29.8073 162.956 30.0667 163.608 30.0667H175.117V33.4771H161.76C158.546 33.4771 156.926 32.199 156.926 29.6112V18.5829ZM133.769 18.5829C133.769 15.9951 135.389 14.717 138.603 14.717H148.549C151.763 14.717 153.383 15.9951 153.383 18.5829V29.6112C153.383 32.199 151.763 33.4771 148.549 33.4771H138.603C135.389 33.4771 133.769 32.199 133.769 29.6112V18.5829ZM113.725 33.4771V14.717H119.406V30.0667H131.061V33.4771H113.725Z" fill="#1F2972"/>
</g>
<defs>
<clipPath id="clip0_31_1106">
<rect width="205" height="48.7191" fill="white"/>
</clipPath>
</defs>
</svg>
