<svg width="372" height="259" viewBox="0 0 372 259" fill="none" xmlns="http://www.w3.org/2000/svg">
<g clip-path="url(#clip0_144_3144)">
<path fill-rule="evenodd" clip-rule="evenodd" d="M364.431 145.544L355.439 143.709C351.681 142.939 348.852 139.767 348.601 135.943C348.098 128.543 346.676 121.338 344.423 114.442C343.241 110.786 344.665 106.787 347.871 104.678L355.518 99.6012C359.492 96.9799 360.594 91.6334 357.973 87.6613L348.273 72.9977C345.646 69.0256 340.292 67.9406 336.321 70.5663L328.662 75.6279C325.453 77.7475 321.218 77.4967 318.327 74.9718C312.864 70.1953 306.786 66.0673 300.175 62.7128C296.751 60.9776 294.95 57.1436 295.723 53.3749L297.549 44.3828C298.508 39.7176 295.489 35.1696 290.828 34.2122L273.6 30.7003C268.937 29.7429 264.388 32.7576 263.43 37.4199L261.596 46.4119C260.825 50.1702 257.664 53.0038 253.837 53.2606C246.441 53.7564 239.234 55.1798 232.343 57.4256C228.682 58.6264 224.688 57.1881 222.567 53.9805L217.504 46.3228C214.878 42.3508 209.53 41.2568 205.564 43.893L190.894 53.5827C186.921 56.2085 185.839 61.5595 188.462 65.5315L193.523 73.1891C195.643 76.3968 195.393 80.6375 192.86 83.5215C188.095 88.9883 183.964 95.0681 180.599 101.673C178.874 105.101 175.033 106.9 171.27 106.14L162.28 104.302C157.616 103.345 153.066 106.359 152.11 111.025L148.599 128.25C147.649 132.918 150.657 137.466 155.323 138.422L164.31 140.255C168.071 141.027 170.893 144.184 171.159 148.024C171.646 155.41 173.077 162.618 175.324 169.51C176.528 173.17 175.089 177.168 171.889 179.292L164.223 184.349C160.249 186.972 159.164 192.326 161.79 196.296L171.473 210.957C174.105 214.932 179.459 216.014 183.433 213.393L191.08 208.325C194.298 206.206 198.528 206.455 201.424 208.993C206.888 213.759 212.963 217.899 219.567 221.243C222.991 222.974 224.808 226.826 224.038 230.586L222.205 239.575C221.246 244.238 224.256 248.797 228.926 249.745L246.151 253.268C250.805 254.21 255.365 251.198 256.325 246.535L258.151 237.543C258.918 233.783 262.086 230.963 265.926 230.695C273.31 230.201 280.516 228.775 287.408 226.53C291.061 225.337 295.057 226.763 297.18 229.971L302.238 237.629C304.87 241.604 310.221 242.698 314.194 240.072L328.857 230.369C332.83 227.748 333.925 222.398 331.292 218.422L326.226 210.762C324.108 207.556 324.356 203.327 326.882 200.426C331.668 194.969 335.796 188.891 339.143 182.28C340.885 178.857 344.709 177.05 348.473 177.822L357.477 179.651C362.138 180.608 366.698 177.595 367.646 172.93L371.157 155.703C372.114 151.041 369.101 146.487 364.433 145.543M229.399 112.565C245.644 95.7331 272.457 95.2566 289.289 111.501C306.121 127.746 306.596 154.558 290.353 171.389C274.11 188.221 247.297 188.698 230.465 172.453C213.633 156.21 213.156 129.398 229.399 112.565Z" fill="#E9E9E9"/>
<path fill-rule="evenodd" clip-rule="evenodd" d="M148.731 208.42L143.187 204.914C140.872 203.447 139.784 200.609 140.587 197.991C142.127 192.919 143.003 187.743 143.247 182.564C143.383 179.821 145.348 177.512 148.026 176.915L154.423 175.462C157.742 174.718 159.835 171.425 159.092 168.106L156.328 155.848C155.58 152.528 152.277 150.445 148.958 151.193L142.558 152.633C139.876 153.236 137.11 151.995 135.817 149.574C133.379 144.998 130.363 140.698 126.797 136.78C124.948 134.753 124.718 131.734 126.19 129.412L129.69 123.867C131.513 120.993 130.649 117.187 127.777 115.366L117.155 108.652C114.283 106.83 110.479 107.691 108.656 110.564L105.15 116.107C103.682 118.422 100.851 119.515 98.2284 118.716C93.1594 117.173 87.9836 116.297 82.8092 116.049C80.0588 115.923 77.7536 113.95 77.1495 111.269L75.7082 104.869C74.9616 101.55 71.6649 99.4616 68.346 100.219L56.0869 102.973C52.7665 103.72 50.6869 107.021 51.4321 110.342L52.8733 116.742C53.476 119.423 52.2336 122.193 49.8097 123.478C45.2395 125.923 40.9379 128.939 37.0148 132.498C34.9946 134.352 31.9696 134.579 29.6496 133.117L24.1086 129.61C21.2349 127.787 17.4306 128.648 15.6093 131.523L8.89573 142.143C7.07743 145.021 7.93389 148.823 10.809 150.646L16.35 154.149C18.667 155.618 19.7536 158.443 18.9565 161.076C17.4083 166.135 16.5385 171.315 16.2921 176.489C16.1689 179.24 14.1948 181.546 11.5185 182.155L5.11367 183.59C1.79323 184.335 -0.289276 187.638 0.458824 190.957L3.21373 203.209C3.9648 206.532 7.26743 208.613 10.5864 207.868L16.9809 206.421C19.669 205.821 22.4328 207.059 23.7241 209.489C26.1673 214.059 29.1776 218.365 32.7414 222.275C34.5909 224.299 34.8284 227.335 33.3604 229.65L29.8574 235.193C28.0346 238.066 28.8911 241.875 31.7692 243.692L42.3866 250.413C45.2573 252.224 49.0675 251.367 50.8918 248.494L54.3918 242.947C55.8583 240.628 58.6889 239.548 61.3236 240.343C66.3837 241.886 71.561 242.758 76.7339 243.006C79.4769 243.135 81.7865 245.101 82.3906 247.783L83.8289 254.182C84.58 257.505 87.8782 259.592 91.1986 258.845L103.456 256.079C106.775 255.335 108.865 252.038 108.113 248.713L106.67 242.312C106.067 239.631 107.305 236.869 109.729 235.571C114.31 233.14 118.61 230.124 122.522 226.555C124.554 224.709 127.568 224.471 129.888 225.942L135.44 229.447C138.313 231.268 142.123 230.41 143.938 227.534L150.652 216.912C152.475 214.04 151.614 210.232 148.734 208.418M66.8646 152.148C81.9869 145.018 100.024 151.499 107.152 166.62C114.281 181.741 107.801 199.778 92.68 206.907C77.5592 214.037 59.5216 207.558 52.3924 192.435C45.2632 177.314 51.7423 159.277 66.8646 152.148Z" fill="#E9E9E9"/>
<path fill-rule="evenodd" clip-rule="evenodd" d="M166.516 64.255L162.695 62.3877C161.1 61.6055 160.199 59.8555 160.53 58.1114C161.163 54.7331 161.362 51.3369 161.151 47.9823C161.046 46.2056 162.149 44.5773 163.832 44.0043L167.852 42.615C169.939 41.9011 171.053 39.63 170.339 37.5446L167.691 29.8409C166.974 27.754 164.699 26.6466 162.614 27.3636L158.591 28.744C156.905 29.3214 155.036 28.7188 154.031 27.2493C152.136 24.4736 149.888 21.9161 147.313 19.6436C145.979 18.468 145.617 16.5384 146.4 14.9383L148.263 11.1176C149.234 9.13605 148.409 6.74629 146.428 5.77554L139.109 2.20129C137.129 1.23054 134.739 2.05434 133.769 4.03443L131.901 7.8536C131.119 9.44925 129.372 10.3532 127.626 10.0252C124.251 9.38839 120.853 9.19098 117.502 9.3973C115.721 9.51159 114.095 8.4028 113.516 6.71809L112.135 2.69557C111.419 0.608604 109.147 -0.503156 107.063 0.219711L99.3575 2.86181C97.2705 3.57874 96.1647 5.85273 96.8802 7.9382L98.2621 11.9607C98.841 13.6454 98.2353 15.5187 96.7644 16.5176C93.9931 18.4161 91.4342 20.6633 89.1572 23.2357C87.9861 24.573 86.0535 24.9337 84.4549 24.1559L80.6357 22.2872C78.6556 21.3164 76.2644 22.1402 75.2936 24.1218L71.7179 31.4395C70.7501 33.4226 71.5709 35.8109 73.5525 36.7831L77.3702 38.6489C78.9673 39.4311 79.8668 41.1752 79.5403 42.9282C78.9005 46.2976 78.7061 49.6967 78.9139 53.0483C79.0282 54.8295 77.9194 56.4549 76.2376 57.0367L72.2121 58.4142C70.1252 59.1296 69.0179 61.4051 69.7348 63.4906L72.3769 71.1898C73.0953 73.2782 75.3708 74.3855 77.4578 73.6701L81.4758 72.2852C83.165 71.7078 85.0338 72.3104 86.0372 73.7859C87.9341 76.5586 90.1784 79.1205 92.7522 81.3871C94.0867 82.5612 94.4548 84.4997 93.6725 86.0954L91.8067 89.9145C90.8345 91.8946 91.6568 94.2888 93.6399 95.2566L100.958 98.8368C102.935 99.8001 105.33 98.9793 106.303 96.9977L108.165 93.1771C108.946 91.58 110.695 90.6834 112.448 91.0085C115.817 91.6438 119.215 91.8412 122.566 91.6349C124.343 91.5235 125.97 92.6279 126.55 94.3126L127.929 98.3351C128.648 100.424 130.922 101.535 133.009 100.82L140.711 98.1704C142.798 97.4564 143.91 95.1839 143.191 93.0955L141.808 89.0714C141.23 87.3867 141.831 85.5194 143.302 84.5116C146.083 82.6206 148.64 80.3733 150.908 77.7965C152.087 76.4636 154.012 76.097 155.61 76.8807L159.437 78.7465C161.417 79.7172 163.811 78.8949 164.778 76.9118L168.352 69.5926C169.323 67.6125 168.499 65.2213 166.516 64.255ZM109.78 33.7863C119.02 28.1235 131.101 31.0224 136.764 40.2624C142.427 49.5023 139.528 61.5832 130.288 67.2459C121.048 72.9086 108.967 70.0097 103.304 60.7698C97.6416 51.5299 100.54 39.449 109.78 33.7863Z" fill="#E9E9E9"/>
<path fill-rule="evenodd" clip-rule="evenodd" d="M34.9098 131.442H61.2076V97.2146L34.9098 131.442ZM57.5339 185.778V159.286H4.35791V131.635L67.3972 50.8057H88.4746V131.442H105.491V159.288H88.4746V185.78H57.5354L57.5339 185.778Z" fill="#CACACA"/>
<path fill-rule="evenodd" clip-rule="evenodd" d="M184.738 117.552C184.738 105.494 180.439 78.0813 165.419 78.0961C150.907 78.1109 145.906 105.145 145.906 117.552C145.906 129.96 149.008 157.475 165.419 157.604C180.841 157.724 184.738 129.838 184.738 117.552ZM215.842 117.552C215.842 127.388 214.553 136.439 211.978 144.708C209.403 152.977 205.861 160.13 201.352 166.166C196.844 172.201 191.531 176.894 185.413 180.247C179.295 183.6 172.63 185.276 165.418 185.276C158.205 185.276 151.508 183.6 145.326 180.247C139.144 176.894 133.799 172.201 129.291 166.166C124.783 160.13 121.274 152.979 118.762 144.708C116.251 136.439 114.995 127.386 114.995 117.552C114.995 107.719 116.251 98.6659 118.762 90.3967C121.274 82.1275 124.783 74.9746 129.291 68.9393C133.799 62.904 139.144 58.1735 145.326 54.7462C151.508 51.3189 158.205 49.606 165.418 49.606C172.63 49.606 179.295 51.3189 185.413 54.7462C191.53 58.1735 196.844 62.904 201.352 68.9393C205.86 74.9746 209.401 82.126 211.978 90.3967C214.553 98.6659 215.842 107.719 215.842 117.552Z" fill="#CACACA"/>
<path fill-rule="evenodd" clip-rule="evenodd" d="M254.234 131.442H280.531V97.2146L254.234 131.442ZM276.858 185.778V159.286H223.68V131.635L286.719 50.8057H307.797V131.442H324.813V159.288H307.797V185.78H276.858V185.778Z" fill="#CACACA"/>
</g>
<defs>
<clipPath id="clip0_144_3144">
<rect width="371.028" height="259" fill="white" transform="translate(0.305664)"/>
</clipPath>
</defs>
</svg>
