<svg width="303" height="198" viewBox="0 0 303 198" fill="none" xmlns="http://www.w3.org/2000/svg">
<path fill-rule="evenodd" clip-rule="evenodd" d="M235.371 94.1675C207.338 94.1675 179.214 94.1675 151.181 94.1675C123.147 94.1675 95.0233 94.1675 66.9897 94.1675C68.8824 107.742 70.6853 120.777 72.3978 133.093C74.0205 144.959 75.6432 156.376 77.1755 167.344C78.2571 174.985 86.2795 181.008 94.9329 181.008C113.682 181.008 132.431 181.008 151.181 181.008C169.929 181.008 188.679 181.008 207.428 181.008C216.081 181.008 224.104 174.985 225.185 167.344C226.718 156.376 228.25 145.049 229.963 133.093C231.676 120.777 233.479 107.742 235.371 94.1675Z" fill="#E2E2E2"/>
<path fill-rule="evenodd" clip-rule="evenodd" d="M62.3924 94.1668H239.969C242.222 94.1668 244.025 92.3687 244.025 90.1215V81.9411C244.025 79.7835 242.222 77.8953 239.969 77.8953H62.3924C60.1393 77.8953 58.2461 79.7835 58.2461 81.9411V90.1215C58.2461 92.3688 60.1393 94.1668 62.3924 94.1668Z" fill="#CACACA"/>
<path fill-rule="evenodd" clip-rule="evenodd" d="M125.31 114.484C128.465 114.484 130.989 117.001 130.989 120.058C130.989 133.992 130.989 147.836 130.989 161.68C130.989 164.736 128.465 167.254 125.31 167.254C122.246 167.254 119.722 164.736 119.722 161.68C119.722 147.836 119.722 133.992 119.722 120.058C119.722 117.001 122.246 114.484 125.31 114.484ZM99.5304 114.484C102.595 114.484 105.119 117.001 105.119 120.058V161.68C105.119 164.736 102.595 167.254 99.5304 167.254C96.3754 167.254 93.8513 164.736 93.8513 161.68V120.058C93.8513 117.001 96.3754 114.484 99.5304 114.484ZM151.181 114.484C154.245 114.484 156.769 117.001 156.769 120.058C156.769 133.992 156.769 147.836 156.769 161.68C156.769 164.736 154.245 167.254 151.181 167.254C148.116 167.254 145.502 164.736 145.502 161.68C145.502 147.836 145.502 133.992 145.502 120.058C145.502 117.001 148.116 114.484 151.181 114.484ZM176.961 114.484C180.116 114.484 182.639 117.001 182.639 120.058C182.639 133.992 182.639 147.836 182.639 161.68C182.639 164.736 180.116 167.254 176.961 167.254C173.896 167.254 171.372 164.736 171.372 161.68C171.372 147.836 171.372 133.992 171.372 120.058C171.372 117.001 173.896 114.484 176.961 114.484ZM202.831 114.484C205.896 114.484 208.419 117.001 208.419 120.058V161.68C208.419 164.736 205.896 167.254 202.831 167.254C199.766 167.254 197.152 164.736 197.152 161.68V120.058C197.152 117.001 199.766 114.484 202.831 114.484Z" fill="#F5F5F5"/>
<path d="M165.963 77.8959L179.214 39.9597C179.484 39.0607 179.665 38.1616 179.665 37.3524C179.665 36.4533 179.394 35.6446 178.944 35.0153C178.583 34.3861 177.952 33.9363 177.231 33.6666C176.69 33.487 175.969 33.3973 175.158 33.3973H147.575C146.043 33.3973 144.24 34.1163 142.708 35.2846C141.085 36.4533 139.823 37.9816 139.192 39.6899L122.426 88.144C121.614 90.3919 119.181 91.6503 116.928 90.8411C114.674 90.0323 113.412 87.605 114.223 85.3577L130.989 36.9031C132.161 33.487 134.595 30.4305 137.57 28.2729C140.544 26.1154 144.15 24.6769 147.575 24.6769H175.158C176.87 24.6769 178.583 25.0364 180.025 25.4861C182.639 26.3852 184.713 28.0032 186.155 30.071C187.597 32.1383 188.318 34.6558 188.318 37.3524C188.318 39.0607 188.048 40.8582 187.417 42.8362L175.158 77.8959L165.963 77.8959Z" fill="#B8B8B8"/>
</svg>
