<svg width="185" height="185" viewBox="0 0 185 185" fill="none" xmlns="http://www.w3.org/2000/svg">
<path d="M132.023 72.5253C132.045 83.0105 129.279 93.3129 124.008 102.377C123.06 104.02 122.027 105.612 120.912 107.146V107.175C118.994 109.807 116.876 112.288 114.578 114.596C112.268 116.902 109.777 119.02 107.129 120.929C105.588 122.049 103.986 123.082 102.331 124.025C90.9656 130.627 77.7382 133.291 64.7034 131.603C51.6685 129.916 39.5558 123.971 30.2467 114.692C20.9376 105.413 14.9533 93.3195 13.2233 80.2902C11.4932 67.2609 14.1143 54.0249 20.6794 42.6383C27.2445 31.2516 37.3861 22.3517 49.5289 17.3209C61.6716 12.2901 75.1359 11.4101 87.8302 14.8175C100.525 18.2249 111.738 25.7291 119.73 36.1643C127.721 46.5995 132.043 59.3817 132.023 72.5253Z" fill="#DCDFE0"/>
<path d="M101.224 101.232C95.5439 106.909 88.3083 110.774 80.4318 112.34C72.5553 113.905 64.3916 113.099 56.9728 110.025C49.5539 106.951 43.2131 101.746 38.7521 95.069C34.291 88.3916 31.9099 80.5413 31.9099 72.5108C31.9099 64.4803 34.291 56.6301 38.7521 49.9527C43.2131 43.2753 49.5539 38.0705 56.9728 34.9964C64.3916 31.9223 72.5553 31.1169 80.4318 32.6821C88.3083 34.2472 95.5439 38.1126 101.224 43.7896C105.03 47.5418 108.053 52.0132 110.116 56.9438C112.179 61.8744 113.241 67.166 113.241 72.5108C113.241 77.8557 112.179 83.1472 110.116 88.0779C108.053 93.0085 105.03 97.4799 101.224 101.232Z" fill="#FCFDFF"/>
<path d="M167.538 167.52C164.65 170.379 160.751 171.983 156.687 171.983C152.623 171.983 148.723 170.379 145.835 167.52L102.329 124.025C103.984 123.082 105.586 122.049 107.127 120.929C109.775 119.02 112.266 116.902 114.576 114.596C116.874 112.288 118.991 109.807 120.91 107.175V107.146C122.025 105.612 123.058 104.02 124.005 102.377L167.512 145.843C170.377 148.721 171.988 152.615 171.993 156.676C171.998 160.737 170.396 164.635 167.538 167.52Z" fill="#C2C2C3"/>
</svg>
