<svg width="244" height="269" viewBox="0 0 244 269" fill="none" xmlns="http://www.w3.org/2000/svg">
<g clip-path="url(#clip0_161_10963)">
<path opacity="0.5" d="M64.8508 246.435L64.4576 244.672C63.5684 240.677 61.3019 234.115 57.7221 225.166L53.986 215.489C45.5759 194.764 38.3927 180.087 32.6422 171.885C27.0287 163.88 20.92 159.494 14.4862 158.849L12.1395 158.614L13.8799 157.025C23.1978 148.518 31.542 144.204 38.681 144.204C48.5011 144.204 58.8606 156.776 70.3523 182.64C70.3523 182.64 72.3902 187.166 73.4853 189.595C82.688 178.869 91.3656 166.991 99.7674 155.489C105.839 147.178 112.118 138.584 118.551 130.481C148.911 92.2399 181.17 61.1524 214.432 38.0845C222.906 32.2081 230.622 27.1756 237.366 23.1267L238.302 22.5645L244.165 33.1528L243.407 33.6996C237.93 37.6436 231.488 42.484 224.259 48.0839C217.623 53.2243 210.962 58.8079 204.463 64.6791C181.066 85.8156 158.255 112.018 136.661 142.558C115.836 172.013 100.326 200.537 90.5637 227.338L90.4453 227.665L82.6899 232.774C76.3198 236.908 70.7721 241.096 66.1929 245.225L64.8508 246.435ZM16.9419 157.116C23.173 158.505 29.0254 163.056 34.3693 170.678C40.2104 179.01 47.4697 193.826 55.9457 214.715L59.684 224.397C62.8346 232.273 64.9867 238.35 66.0931 242.5C70.487 238.676 75.6735 234.817 81.5351 231.012L88.7029 226.291C98.5354 199.409 114.091 170.832 134.94 141.343C156.622 110.677 179.537 84.3579 203.049 63.1187C209.587 57.2114 216.289 51.5929 222.966 46.4207C229.884 41.0613 236.086 36.3946 241.416 32.5391L237.517 25.4949C231.036 29.4204 223.681 34.233 215.634 39.8134C182.543 62.7641 150.435 93.7087 120.202 131.789C113.795 139.859 107.53 148.435 101.471 156.73C92.7149 168.715 83.6615 181.108 73.9989 192.223L73.5274 192.765L72.8491 192.525C72.423 192.373 72.423 192.373 68.4275 183.498C57.4617 158.819 47.4542 146.309 38.6808 146.309C32.492 146.309 25.1852 149.943 16.9419 157.116Z" fill="#81B9CB"/>
<path d="M189.001 63.8995C163.389 87.0363 140.79 114.025 121.045 141.952C100.067 171.622 84.6574 199.966 74.8183 226.98L67.3539 231.896C60.9071 236.08 55.3679 240.263 50.7312 244.444C49.8245 240.375 47.5637 233.82 43.9455 224.777L40.2133 215.111C31.7293 194.202 24.5753 179.591 18.75 171.282C12.9248 162.974 6.6215 158.482 -0.164185 157.803C8.9953 149.44 17.0254 145.257 23.925 145.257C33.1995 145.257 43.4335 157.862 54.6331 183.067C54.6331 183.067 58.4456 191.535 58.4475 191.533C74.7612 172.767 88.9439 150.882 104.621 131.136C131.986 96.6682 164.016 64.0994 200.278 38.9497C208.749 33.0743 216.374 28.0989 223.154 24.0303L228.035 32.8465C222.542 36.8023 216.148 41.605 208.857 47.2526C202.047 52.528 195.429 58.0925 189.001 63.8995Z" fill="#81B9CB"/>
</g>
<defs>
<clipPath id="clip0_161_10963">
<rect width="244" height="269" fill="white"/>
</clipPath>
</defs>
</svg>
