<svg width="66" height="66" viewBox="0 0 66 66" fill="none" xmlns="http://www.w3.org/2000/svg">
<circle opacity="0.5" cx="40.5" cy="40.5" r="25.5" fill="#81B9CB"/>
<g clip-path="url(#clip0_2004_15688)">
<path d="M45.5 21C45.5 18.7945 43.7055 17 41.5 17H27.8535L29.863 10.4705C30.3345 8.938 30.059 7.3195 29.106 6.0295C28.153 4.7395 26.6875 4 25.084 4H24.8735C23.6415 4 22.5165 4.7725 22.073 5.923L19.511 12.586C18.437 15.3775 16.714 17.874 14.5 19.8715V19C14.5 17.3455 13.1545 16 11.5 16H5.5C3.8455 16 2.5 17.3455 2.5 19V41C2.5 42.6545 3.8455 44 5.5 44H11.5C13.1545 44 14.5 42.6545 14.5 41V39.723L16.315 40.76C18.879 42.2255 21.7955 43 24.749 43H35.5C37.7055 43 39.5 41.2055 39.5 39C39.5 38.1755 39.249 37.409 38.82 36.7715C40.378 36.2245 41.5 34.7425 41.5 33C41.5 32.1755 41.249 31.409 40.82 30.7715C42.378 30.2245 43.5 28.7425 43.5 27C43.5 26.1755 43.249 25.409 42.82 24.7715C44.378 24.2245 45.5 22.7425 45.5 21ZM12.5 41C12.5 41.5515 12.0515 42 11.5 42H5.5C4.9485 42 4.5 41.5515 4.5 41V19C4.5 18.4485 4.9485 18 5.5 18H11.5C12.0515 18 12.5 18.4485 12.5 19V41ZM41.5 23H34.5C33.948 23 33.5 23.448 33.5 24C33.5 24.552 33.948 25 34.5 25H39.5C40.603 25 41.5 25.897 41.5 27C41.5 28.103 40.603 29 39.5 29H33.5C32.948 29 32.5 29.448 32.5 30C32.5 30.552 32.948 31 33.5 31H37.5C38.603 31 39.5 31.897 39.5 33C39.5 34.103 38.603 35 37.5 35H32.5C31.948 35 31.5 35.448 31.5 36C31.5 36.552 31.948 37 32.5 37H35.5C36.603 37 37.5 37.897 37.5 39C37.5 40.103 36.603 41 35.5 41H24.749C22.143 41 19.57 40.317 17.307 39.024L14.5 37.42V22.4805L14.8955 22.164C17.8005 19.8405 20.042 16.777 21.378 13.304L23.94 6.641C24.088 6.258 24.463 6 24.8735 6H25.084C26.046 6 26.926 6.444 27.4975 7.218C28.069 7.992 28.2345 8.963 27.9515 9.8825L25.9415 16.4125C25.753 17.0255 25.864 17.673 26.2445 18.189C26.6265 18.704 27.213 19 27.854 19H41.5C42.603 19 43.5 19.897 43.5 21C43.5 22.103 42.603 23 41.5 23Z" fill="#002D66"/>
</g>
<defs>
<clipPath id="clip0_2004_15688">
<rect width="48" height="48" fill="white"/>
</clipPath>
</defs>
</svg>
