<svg width="66" height="66" viewBox="0 0 66 66" fill="none" xmlns="http://www.w3.org/2000/svg">
<circle opacity="0.5" cx="40.5" cy="40.5" r="25.5" fill="#81B9CB"/>
<g clip-path="url(#clip0_2004_15709)">
<path d="M41 11.3405V7.5C41 5.8455 39.6545 4.5 38 4.5H23C22.7348 4.50006 22.4805 4.60545 22.293 4.793L2.29303 24.793C2.10556 24.9805 2.00024 25.2348 2.00024 25.5C2.00024 25.7652 2.10556 26.0195 2.29303 26.207L19.293 43.207C19.4885 43.4025 19.744 43.5 20 43.5C20.256 43.5 20.5115 43.4025 20.707 43.207L31.1045 32.8095C32.685 34.7945 34.746 36 37 36C41.9625 36 46 30.1685 46 23C46 18.0015 44.053 13.509 41 11.3405ZM20 41.086L4.41403 25.5L23.414 6.5H38C38.5515 6.5 39 6.9485 39 7.5V22.086L31.431 29.6545C30.534 27.8055 30 25.4995 30 23C30 21.58 30.187 20.1945 30.5225 18.9025C30.8444 18.967 31.1718 18.9997 31.5 19C34.257 19 36.5 16.757 36.5 14C36.5 11.243 34.257 9 31.5 9C28.743 9 26.5 11.243 26.5 14C26.5 15.7045 27.359 17.2105 28.665 18.1135C28.2234 19.7048 27.9997 21.3486 28 23C28 26.0665 28.7405 28.886 29.9745 31.1115L20 41.086ZM32.211 13.313C31.997 13.1564 31.7296 13.0911 31.4674 13.1315C31.2053 13.1719 30.97 13.3147 30.813 13.5285C30.251 14.295 29.774 15.171 29.3705 16.1105C28.8126 15.5498 28.4996 14.7909 28.5 14C28.5 12.3455 29.8455 11 31.5 11C33.1545 11 34.5 12.3455 34.5 14C34.4995 14.4216 34.4101 14.8384 34.2378 15.2233C34.0654 15.6081 33.814 15.9523 33.4998 16.2335C33.1856 16.5147 32.8158 16.7266 32.4143 16.8554C32.0128 16.9842 31.5887 17.027 31.1695 16.981C31.5195 16.1505 31.9355 15.3805 32.426 14.711C32.5037 14.6051 32.5598 14.4849 32.591 14.3573C32.6223 14.2298 32.6281 14.0973 32.6081 13.9675C32.5882 13.8376 32.5428 13.713 32.4747 13.6007C32.4066 13.4884 32.317 13.3907 32.211 13.313ZM37 34C35.287 34 33.7165 33.0265 32.4985 31.4155L40.707 23.207C40.8946 23.0195 41 22.7652 41 22.5V14.0125C42.841 16.055 44 19.406 44 23C44 29.0655 40.86 34 37 34Z" fill="#002D66"/>
</g>
<defs>
<clipPath id="clip0_2004_15709">
<rect width="48" height="48" fill="white"/>
</clipPath>
</defs>
</svg>
