<svg width="66" height="66" viewBox="0 0 66 66" fill="none" xmlns="http://www.w3.org/2000/svg">
<circle opacity="0.5" cx="40.5" cy="40.5" r="25.5" fill="#81B9CB"/>
<g clip-path="url(#clip0_2004_15716)">
<path d="M41.922 23.5685C42.6615 22.7135 43.5 21.7435 43.5 20.5C43.5 19.2565 42.6615 18.287 41.9225 17.432C41.4785 16.919 41.02 16.3885 40.908 15.969C40.7865 15.5135 40.921 14.8015 41.051 14.1125C41.257 13.022 41.491 11.7865 40.8895 10.747C40.28 9.694 39.0825 9.2775 38.0255 8.9095C37.372 8.6825 36.6965 8.447 36.3745 8.126C36.053 7.804 35.818 7.1285 35.591 6.475C35.2235 5.418 34.807 4.2205 33.753 3.6105C32.7135 3.009 31.477 3.243 30.3875 3.449C29.6985 3.579 28.986 3.713 28.531 3.5915C28.1115 3.4795 27.5815 3.021 27.0685 2.578C26.2135 1.8385 25.2435 1 24 1C22.7565 1 21.787 1.8385 20.932 2.5775C20.419 3.0215 19.8885 3.48 19.469 3.592C19.013 3.7115 18.3015 3.5795 17.6125 3.449C16.5225 3.242 15.2865 3.009 14.247 3.6105C13.194 4.22 12.7775 5.4175 12.4095 6.4745C12.1825 7.128 11.947 7.8035 11.626 8.1255C11.304 8.447 10.6285 8.682 9.975 8.909C8.918 9.2765 7.7205 9.693 7.1105 10.747C6.5095 11.786 6.743 13.0225 6.949 14.1125C7.0795 14.8015 7.2135 15.5135 7.0915 15.969C6.9795 16.3885 6.521 16.9185 6.078 17.4315C5.3385 18.2865 4.5 19.2565 4.5 20.5C4.5 21.7435 5.3385 22.713 6.0775 23.568C6.5215 24.081 6.98 24.6115 7.092 25.031C7.2135 25.4865 7.079 26.1985 6.949 26.8875C6.743 27.978 6.509 29.2135 7.1105 30.253C7.72 31.306 8.9175 31.7225 9.9745 32.0905C10.628 32.3175 11.3035 32.553 11.6255 32.874C11.6645 32.913 11.702 32.9575 11.7385 33.0065L8.0465 44.699C7.99933 44.8488 7.98809 45.0076 8.01368 45.1626C8.03928 45.3175 8.10099 45.4643 8.19383 45.5909C8.28667 45.7176 8.40803 45.8206 8.54808 45.8917C8.68813 45.9628 8.84295 45.9999 9 46H18C18.436 46 18.8225 45.7175 18.9535 45.3015L21.0845 38.5535C21.9025 39.2575 22.8295 40 24 40C25.171 40 26.0975 39.257 26.9155 38.553L29.0465 45.301C29.1104 45.5038 29.2373 45.681 29.4087 45.8067C29.5802 45.9324 29.7874 46.0001 30 46H39C39.1571 45.9999 39.3119 45.9628 39.4519 45.8917C39.592 45.8206 39.7133 45.7176 39.8062 45.5909C39.899 45.4643 39.9607 45.3175 39.9863 45.1626C40.0119 45.0076 40.0007 44.8488 39.9535 44.699L36.2615 33.0065C36.296 32.9601 36.3336 32.916 36.374 32.8745C36.696 32.553 37.3715 32.318 38.025 32.091C39.082 31.7235 40.2795 31.307 40.8895 30.253C41.4905 29.214 41.257 27.9775 41.051 26.8875C40.9205 26.1985 40.7865 25.4865 40.9085 25.031C41.02 24.6115 41.4785 24.081 41.922 23.5685ZM17.267 44H10.3645L12.936 35.857C13.234 36.4715 13.63 37.032 14.247 37.3895C15.2865 37.991 16.523 37.7565 17.6125 37.551C18.2495 37.4305 18.897 37.3155 19.353 37.394L17.267 44ZM30.733 44L28.647 37.3935C29.1025 37.316 29.75 37.43 30.3875 37.5505C31.4775 37.757 32.7135 37.9905 33.753 37.389C34.3705 37.032 34.766 36.471 35.064 35.856L37.6355 44H30.733ZM40.409 22.2605C39.8175 22.944 39.2065 23.651 38.976 24.5145C38.7365 25.41 38.914 26.35 39.0855 27.2585C39.234 28.0435 39.3875 28.8555 39.158 29.2515C38.9205 29.6615 38.1315 29.9365 37.3685 30.2015C36.502 30.503 35.606 30.8145 34.9605 31.4605C34.3145 32.106 34.003 33.002 33.7015 33.8685C33.436 34.6315 33.1615 35.4205 32.7515 35.658C32.3555 35.887 31.5435 35.734 30.7595 35.5855C29.8495 35.413 28.91 35.236 28.015 35.475C27.151 35.706 26.444 36.3175 25.7605 36.909C25.1395 37.446 24.499 38 24 38C23.501 38 22.86 37.4455 22.2395 36.909C21.556 36.3175 20.849 35.7065 19.9855 35.476C19.6753 35.3955 19.3559 35.3564 19.0355 35.3595C18.4385 35.3595 17.8335 35.474 17.2415 35.5855C16.4555 35.734 15.644 35.887 15.2485 35.658C14.8385 35.4205 14.5635 34.6315 14.2985 33.8685C13.997 33.002 13.6855 32.106 13.0395 31.4605C12.394 30.8145 11.498 30.503 10.6315 30.2015C9.8685 29.936 9.0795 29.6615 8.842 29.2515C8.6125 28.8555 8.7665 28.044 8.9145 27.2595C9.0865 26.3505 9.264 25.4105 9.025 24.515C8.794 23.651 8.1825 22.944 7.591 22.2605C7.054 21.6395 6.5 20.999 6.5 20.5C6.5 20.001 7.0545 19.36 7.591 18.7395C8.1825 18.056 8.7935 17.349 9.024 16.4855C9.2635 15.59 9.086 14.65 8.9145 13.7415C8.766 12.9565 8.6125 12.1445 8.842 11.7485C9.0795 11.3385 9.8685 11.0635 10.6315 10.7985C11.498 10.497 12.394 10.1855 13.0395 9.5395C13.6855 8.894 13.997 7.998 14.2985 7.1315C14.564 6.3685 14.8385 5.5795 15.2485 5.342C15.6435 5.1125 16.456 5.266 17.2405 5.4145C18.15 5.587 19.09 5.764 19.985 5.525C20.849 5.294 21.556 4.6825 22.2395 4.091C22.8605 3.554 23.501 3 24 3C24.499 3 25.14 3.5545 25.7605 4.091C26.444 4.6825 27.151 5.2935 28.0145 5.524C28.9105 5.764 29.85 5.5865 30.7585 5.4145C31.5435 5.2655 32.3555 5.1125 32.7515 5.342C33.1615 5.5795 33.4365 6.3685 33.7015 7.1315C34.003 7.998 34.3145 8.894 34.9605 9.5395C35.606 10.1855 36.502 10.497 37.3685 10.7985C38.1315 11.064 38.9205 11.3385 39.158 11.7485C39.3875 12.1445 39.2335 12.956 39.0855 13.7405C38.9135 14.6495 38.736 15.5895 38.975 16.485C39.206 17.349 39.8175 18.056 40.409 18.7395C40.946 19.3605 41.5 20.001 41.5 20.5C41.5 20.999 40.9455 21.64 40.409 22.2605ZM24 8C17.1075 8 11.5 13.6075 11.5 20.5C11.5 27.3925 17.1075 33 24 33C30.8925 33 36.5 27.3925 36.5 20.5C36.5 13.6075 30.8925 8 24 8ZM24 31C18.2105 31 13.5 26.2895 13.5 20.5C13.5 14.7105 18.2105 10 24 10C29.7895 10 34.5 14.7105 34.5 20.5C34.5 26.2895 29.7895 31 24 31ZM30.151 17.5945L26.533 17.0425L24.9055 13.575C24.8246 13.4033 24.6965 13.2581 24.5361 13.1564C24.3758 13.0547 24.1899 13.0007 24 13.0007C23.8101 13.0007 23.6242 13.0547 23.4639 13.1564C23.3035 13.2581 23.1754 13.4033 23.0945 13.575L21.467 17.0425L17.849 17.5945C17.6675 17.6227 17.4973 17.7003 17.3569 17.8187C17.2166 17.9372 17.1115 18.0919 17.0531 18.2661C16.9948 18.4402 16.9855 18.6271 17.0262 18.8061C17.0669 18.9852 17.1561 19.1497 17.284 19.2815L19.9025 21.9655L19.025 25.775C18.9819 25.9608 18.9929 26.155 19.0566 26.3347C19.1203 26.5144 19.2341 26.6722 19.3845 26.7893C19.535 26.9065 19.7158 26.9782 19.9056 26.9959C20.0955 27.0137 20.2864 26.9767 20.456 26.8895L24 25.0735L27.544 26.89C27.7135 26.9773 27.9045 27.0143 28.0944 26.9966C28.2842 26.9789 28.465 26.9072 28.6155 26.79C28.7659 26.6728 28.8796 26.515 28.9433 26.3352C29.0069 26.1554 29.0177 25.9612 28.9745 25.7755L28.097 21.966L30.7155 19.282C30.8441 19.1504 30.9338 18.986 30.975 18.8067C31.0161 18.6274 31.007 18.4403 30.9486 18.2658C30.8903 18.0914 30.785 17.9364 30.6442 17.818C30.5035 17.6996 30.3328 17.6222 30.151 17.5945ZM26.284 20.96C26.167 21.0799 26.082 21.2272 26.0368 21.3885C25.9915 21.5497 25.9875 21.7198 26.025 21.883L26.5425 24.13L24.4555 23.06C24.3143 22.9881 24.158 22.9506 23.9995 22.9506C23.841 22.9506 23.6847 22.9881 23.5435 23.06L21.4565 24.13L21.974 21.883C22.0115 21.7198 22.0074 21.5497 21.9622 21.3885C21.9169 21.2272 21.8319 21.0799 21.715 20.96L20.074 19.2785L22.296 18.939C22.4584 18.914 22.6121 18.8495 22.7437 18.7512C22.8752 18.6528 22.9806 18.5237 23.0505 18.375L24 16.3535L24.9485 18.375C25.09 18.677 25.3735 18.888 25.703 18.939L27.925 19.2785L26.284 20.96Z" fill="#002D66"/>
</g>
<defs>
<clipPath id="clip0_2004_15716">
<rect width="48" height="48" fill="white"/>
</clipPath>
</defs>
</svg>
