<svg width="66" height="66" viewBox="0 0 66 66" fill="none" xmlns="http://www.w3.org/2000/svg">
<circle opacity="0.5" cx="40.5" cy="40.5" r="25.5" fill="#81B9CB"/>
<g clip-path="url(#clip0_2004_15695)">
<path d="M41 21.101V19C41 9.626 33.374 2 24 2C14.626 2 7 9.626 7 19V21.101C4.7205 21.5655 3 23.5855 3 26V31.5C3 34.257 5.243 36.5 8 36.5H12C13.103 36.5 14 35.603 14 34.5V23C14 21.897 13.103 21 12 21H9V19C8.99754 16.1024 9.83972 13.2669 11.4235 10.8405L11.895 11.3125C12.174 11.5935 12.5061 11.8163 12.8719 11.9679C13.2377 12.1196 13.63 12.1971 14.026 12.196H14.0425C14.433 12.1958 14.8195 12.1174 15.1792 11.9655C15.5389 11.8136 15.8646 11.5912 16.137 11.3115C18.224 9.1765 21.0165 8 24 8C26.9835 8 29.776 9.1765 31.8635 11.312C32.1359 11.5916 32.4616 11.8138 32.8212 11.9656C33.1808 12.1174 33.5671 12.1958 33.9575 12.196H33.974C34.37 12.197 34.7622 12.1194 35.128 11.9678C35.4938 11.8161 35.8259 11.5934 36.105 11.3125L36.5765 10.8405C38.1603 13.2669 39.0025 16.1024 39 19V21H36C34.897 21 34 21.897 34 23V34.5C34 35.603 34.897 36.5 36 36.5H39V38.5C39 40.1545 37.6545 41.5 36 41.5H28.3525C27.921 40.056 26.582 39 25 39H23C21.0705 39 19.5 40.5705 19.5 42.5C19.5 44.4295 21.0705 46 23 46H25C26.582 46 27.921 44.9435 28.3525 43.5H36C38.757 43.5 41 41.257 41 38.5V36.399C43.2795 35.9345 45 33.914 45 31.5V26C45 23.5855 43.2795 21.5655 41 21.101ZM12.0015 34.5H8C6.3455 34.5 5 33.1545 5 31.5V26C5 24.3455 6.3455 23 8 23H12L12.0015 34.5ZM34.69 9.8985C34.5962 9.99309 34.4846 10.0681 34.3616 10.1192C34.2386 10.1702 34.1067 10.1964 33.9735 10.196H33.968C33.8424 10.1964 33.718 10.1718 33.6021 10.1234C33.4861 10.0751 33.3811 10.0041 33.293 9.9145C30.827 7.39 27.5265 6 24 6C20.4735 6 17.173 7.39 14.707 9.9135C14.619 10.0033 14.5138 10.0745 14.3978 10.1229C14.2818 10.1714 14.1572 10.196 14.0315 10.1955H14.026C13.8928 10.1959 13.7609 10.1697 13.6379 10.1187C13.5149 10.0676 13.4033 9.99259 13.3095 9.898L12.6365 9.2245C15.39 6.029 19.461 4 24 4C28.539 4 32.61 6.029 35.363 9.225L34.69 9.8985ZM25 44H23C22.173 44 21.5 43.327 21.5 42.5C21.5 41.673 22.173 41 23 41H25C25.827 41 26.5 41.673 26.5 42.5C26.5 43.327 25.827 44 25 44ZM43 31.5C43 33.1545 41.6545 34.5 40 34.5H36V23H40C41.6545 23 43 24.3455 43 26V31.5Z" fill="#002D66"/>
</g>
<defs>
<clipPath id="clip0_2004_15695">
<rect width="48" height="48" fill="white"/>
</clipPath>
</defs>
</svg>
