<svg width="816" height="416" viewBox="0 0 816 416" fill="none" xmlns="http://www.w3.org/2000/svg">
<g clip-path="url(#clip0_2004_15535)">
<path opacity="0.25" fill-rule="evenodd" clip-rule="evenodd" d="M605.461 0H368.889L125 439L530.559 134.824L605.461 0Z" fill="#114B9C"/>
<path opacity="0.25" d="M710.333 0H995.683L434.739 439H125L710.333 0Z" fill="#218ECD"/>
<g opacity="0.25">
<path d="M88.0088 165.406H36.043C33.8099 165.406 32 167.216 32 169.449V221.415C32 223.648 33.8099 225.458 36.043 225.458H57.9824V260.39C57.9824 262.622 59.7923 264.433 62.0254 264.433H75.0176C76.758 264.433 78.3025 263.319 78.8521 261.668L91.8433 222.693C91.9812 222.282 92.0518 221.85 92.0518 221.415V169.449C92.0518 167.216 90.2419 165.406 88.0088 165.406Z" fill="#81B9CB"/>
<path d="M165.957 165.406H113.991C111.758 165.406 109.948 167.216 109.948 169.449V221.415C109.948 223.648 111.758 225.458 113.991 225.458H135.932V260.39C135.932 262.622 137.742 264.433 139.975 264.433H152.966C154.706 264.433 156.251 263.319 156.801 261.668L169.793 222.693C169.929 222.282 170 221.85 170 221.415V169.449C170 167.216 168.19 165.406 165.957 165.406Z" fill="#81B9CB"/>
</g>
</g>
<defs>
<clipPath id="clip0_2004_15535">
<rect width="816" height="416" fill="white"/>
</clipPath>
</defs>
</svg>
