<svg width="138" height="138" viewBox="0 0 138 138" fill="none" xmlns="http://www.w3.org/2000/svg">
<g opacity="0.25">
<path d="M56.0088 19.4063H4.04297C1.80986 19.4063 0 21.2161 0 23.4492V75.4151C0 77.6482 1.80986 79.458 4.04297 79.458H25.9824V114.39C25.9824 116.622 27.7923 118.433 30.0254 118.433H43.0176C44.758 118.433 46.3025 117.319 46.8521 115.668L59.8433 76.6932C59.9812 76.2816 60.0518 75.8499 60.0518 75.4151V23.4492C60.0518 21.2161 58.2419 19.4063 56.0088 19.4063Z" fill="#81B9CB"/>
<path d="M133.957 19.4063H81.9912C79.7581 19.4063 77.9482 21.2161 77.9482 23.4492V75.4151C77.9482 77.6482 79.7581 79.458 81.9912 79.458H103.932V114.39C103.932 116.622 105.742 118.433 107.975 118.433H120.966C122.706 118.433 124.251 117.319 124.801 115.668L137.793 76.6932C137.929 76.2816 138 75.8499 138 75.4151V23.4492C138 21.2161 136.19 19.4063 133.957 19.4063Z" fill="#81B9CB"/>
</g>
</svg>
