<svg width="48" height="48" viewBox="0 0 48 48" fill="none" xmlns="http://www.w3.org/2000/svg">
<path d="M37 44H11C9.3455 44 8 42.6545 8 41V7C8 5.3455 9.3455 4 11 4H37C38.6545 4 40 5.3455 40 7V41C40 42.6545 38.6545 44 37 44ZM11 6C10.4485 6 10 6.4485 10 7V41C10 41.5515 10.4485 42 11 42H37C37.5515 42 38 41.5515 38 41V7C38 6.4485 37.5515 6 37 6H11ZM34 20.5H14C12.897 20.5 12 19.603 12 18.5V11C12 9.897 12.897 9 14 9H34C35.103 9 36 9.897 36 11V18.5C36 19.603 35.103 20.5 34 20.5ZM14 11V18.5H34.0015L34 11H14ZM18 30.5H13C12.448 30.5 12 30.052 12 29.5V24.5C12 23.948 12.448 23.5 13 23.5H18C18.552 23.5 19 23.948 19 24.5V29.5C19 30.052 18.552 30.5 18 30.5ZM14 28.5H17V25.5H14V28.5ZM35 30.5H30C29.448 30.5 29 30.052 29 29.5V24.5C29 23.948 29.448 23.5 30 23.5H35C35.552 23.5 36 23.948 36 24.5V29.5C36 30.052 35.552 30.5 35 30.5ZM31 28.5H34V25.5H31V28.5ZM26.5 30.5H21.5C20.948 30.5 20.5 30.052 20.5 29.5V24.5C20.5 23.948 20.948 23.5 21.5 23.5H26.5C27.052 23.5 27.5 23.948 27.5 24.5V29.5C27.5 30.052 27.052 30.5 26.5 30.5ZM22.5 28.5H25.5V25.5H22.5V28.5ZM18 39H13C12.448 39 12 38.552 12 38V33C12 32.448 12.448 32 13 32H18C18.552 32 19 32.448 19 33V38C19 38.552 18.552 39 18 39ZM14 37H17V34H14V37ZM35 39H30C29.448 39 29 38.552 29 38V33C29 32.448 29.448 32 30 32H35C35.552 32 36 32.448 36 33V38C36 38.552 35.552 39 35 39ZM31 37H34V34H31V37ZM26.5 39H21.5C20.948 39 20.5 38.552 20.5 38V33C20.5 32.448 20.948 32 21.5 32H26.5C27.052 32 27.5 32.448 27.5 33V38C27.5 38.552 27.052 39 26.5 39ZM22.5 37H25.5V34H22.5V37Z" fill="#002D66"/>
</svg>
