<svg width="48" height="48" viewBox="0 0 48 48" fill="none" xmlns="http://www.w3.org/2000/svg">
<g clip-path="url(#clip0_2042_15719)">
<path d="M44.726 23.694L38.4375 16.666C37.9683 16.1422 37.394 15.7231 36.752 15.436C36.11 15.149 35.4147 15.0004 34.7115 15H27V10C27 8.3455 25.6545 7 24 7H5C3.3455 7 2 8.3455 2 10V33C2 34.6545 3.3455 36 5 36H8.5905C9.0685 38.833 11.533 41 14.5 41C17.467 41 19.9315 38.833 20.4095 36H29.5905C30.0685 38.833 32.533 41 35.5 41C38.467 41 40.9315 38.833 41.4095 36H43C44.6545 36 46 34.6545 46 33V27.0285C46.0005 25.798 45.5469 24.6106 44.726 23.694ZM14.5 39C12.2945 39 10.5 37.2055 10.5 35C10.5 32.7945 12.2945 31 14.5 31C16.7055 31 18.5 32.7945 18.5 35C18.5 37.2055 16.7055 39 14.5 39ZM25 34H20.4095C19.9315 31.167 17.467 29 14.5 29C11.533 29 9.0685 31.167 8.5905 34H5C4.4485 34 4 33.5515 4 33V10C4 9.4485 4.4485 9 5 9H24C24.5515 9 25 9.4485 25 10V34ZM35.5 39C33.2945 39 31.5 37.2055 31.5 35C31.5 32.7945 33.2945 31 35.5 31C37.7055 31 39.5 32.7945 39.5 35C39.5 37.2055 37.7055 39 35.5 39ZM44 33C44 33.5515 43.5515 34 43 34H41.4095C40.9315 31.167 38.467 29 35.5 29C32.533 29 30.0685 31.167 29.5905 34H27V17H34.7115C35.564 17 36.379 17.3645 36.9475 18L43.2355 25.0275C43.7281 25.5776 44.0003 26.2901 44 27.0285V33ZM35.2375 19.324C35.1437 19.2219 35.0297 19.1403 34.9028 19.0845C34.7758 19.0288 34.6387 19 34.5 19H30C29.7348 19 29.4804 19.1054 29.2929 19.2929C29.1054 19.4804 29 19.7348 29 20V26C29 26.2652 29.1054 26.5196 29.2929 26.7071C29.4804 26.8946 29.7348 27 30 27H40C40.194 26.9998 40.3837 26.9432 40.5461 26.8372C40.7085 26.7311 40.8366 26.5801 40.9147 26.4026C40.9929 26.225 41.0177 26.0286 40.9863 25.8372C40.9548 25.6458 40.8684 25.4677 40.7375 25.3245L35.2375 19.324ZM31 25V21H34.06L37.7265 25H31Z" fill="#002D66"/>
</g>
<defs>
<clipPath id="clip0_2042_15719">
<rect width="48" height="48" fill="white"/>
</clipPath>
</defs>
</svg>
