<svg width="48" height="48" viewBox="0 0 48 48" fill="none" xmlns="http://www.w3.org/2000/svg">
<path d="M45.4475 12.6056L24.4475 2.10562C24.166 1.96512 23.834 1.96512 23.553 2.10562L2.553 12.6056C2.214 12.7751 2 13.1211 2 13.5001V34.5001C2 34.8791 2.214 35.2251 2.5525 35.3946L23.5525 45.8946C23.6935 45.9651 23.8465 46.0001 24 46.0001C24.1535 46.0001 24.3065 45.9651 24.4475 45.8946L45.4475 35.3946C45.786 35.2251 46 34.8791 46 34.5001V13.5001C46 13.1211 45.786 12.7751 45.4475 12.6056ZM24 4.11812L42.764 13.5001L38.75 15.5071L19.9865 6.12512L24 4.11812ZM30.75 19.5071L11.986 10.1251L17.75 7.24312L36.514 16.6251L30.75 19.5071ZM31.5 21.3681L37.5 18.3681V25.8066L35.581 24.4361C35.3635 24.2806 35.0915 24.2191 34.828 24.2646C34.5645 24.3111 34.33 24.4606 34.1775 24.6806L31.5 28.5491V21.3681ZM9.75 11.2431L28.5135 20.6251L24 22.8821L5.236 13.5001L9.75 11.2431ZM4 15.1181L23 24.6181V43.3816L4 33.8816V15.1181ZM25 43.3821V24.6181L29.5 22.3681V31.7501C29.5 32.1876 29.784 32.5741 30.2015 32.7046C30.3005 32.7356 30.4005 32.7501 30.5 32.7501C30.822 32.7501 31.132 32.5941 31.3225 32.3196L35.245 26.6541L37.9195 28.5641C38.2245 28.7816 38.6255 28.8111 38.958 28.6391C39.2905 28.4681 39.5 28.1246 39.5 27.7501V17.3681L44 15.1181V33.8816L25 43.3821Z" fill="#002D66"/>
</svg>
