<svg width="48" height="48" viewBox="0 0 48 48" fill="none" xmlns="http://www.w3.org/2000/svg">
<path d="M39 12.9999H37.864L29.182 4.31794C27.427 2.56394 24.5725 2.56394 22.8175 4.31794L14.136 12.9999H9C6.243 12.9999 4 15.2429 4 17.9999V39.9999C4 42.7569 6.243 44.9999 9 44.9999H39C41.757 44.9999 44 42.7569 44 39.9999V17.9999C44 15.2429 41.757 12.9999 39 12.9999ZM23.914 12.9999L29.475 7.43894L30.561 8.52494L26.086 12.9999H23.914ZM31.975 9.93894L35.0355 12.9999H28.914L31.975 9.93894ZM24.232 5.73244C25.2065 4.75744 26.7935 4.75744 27.768 5.73244L28.061 6.02544L21.086 12.9999H16.9645L24.232 5.73244ZM39 42.9999H9C7.3455 42.9999 6 41.6544 6 39.9999V17.9999C6 16.3454 7.3455 14.9999 9 14.9999H39C40.6545 14.9999 42 16.3454 42 17.9999V23.9999H35C32.243 23.9999 30 26.2429 30 28.9999C30 31.7569 32.243 33.9999 35 33.9999H42V39.9999C42 41.6544 40.6545 42.9999 39 42.9999ZM42 25.9999V31.9999H35C33.3455 31.9999 32 30.6544 32 28.9999C32 27.3454 33.3455 25.9999 35 25.9999H42ZM35 27.9999H37C37.552 27.9999 38 28.4479 38 28.9999C38 29.5519 37.552 29.9999 37 29.9999H35C34.448 29.9999 34 29.5519 34 28.9999C34 28.4479 34.448 27.9999 35 27.9999Z" fill="#002D66"/>
</svg>
