<svg width="0" height="0" style="position:absolute"><symbol viewBox="0 0 24 24" id="arrow--down" xmlns="http://www.w3.org/2000/svg"><path d="m13 16.172 5.364-5.364 1.414 1.414L12 20l-7.778-7.778 1.414-1.414L11 16.172V4h2v12.172Z"/></symbol><symbol viewBox="0 0 24 24" id="arrow--left" xmlns="http://www.w3.org/2000/svg"><path d="m7.828 11 5.364-5.364-1.414-1.414L4 12l7.778 7.778 1.414-1.414L7.828 13H20v-2H7.828Z"/></symbol><symbol viewBox="0 0 24 24" id="arrow--right" xmlns="http://www.w3.org/2000/svg"><path d="m16.172 11-5.364-5.364 1.414-1.414L20 12l-7.778 7.778-1.414-1.414L16.172 13H4v-2h12.172Z"/></symbol><symbol viewBox="0 0 24 24" id="arrow--up" xmlns="http://www.w3.org/2000/svg"><path d="m11 7.828-5.364 5.364-1.414-1.414L12 4l7.778 7.778-1.414 1.414L13 7.828V20h-2V7.828Z"/></symbol><symbol viewBox="0 0 24 24" id="arrow--up-right" xmlns="http://www.w3.org/2000/svg"><path d="m16.004 9.414-8.607 8.607-1.414-1.414L14.589 8H7.004V6h11v11h-2V9.414Z"/></symbol><symbol viewBox="0 0 24 24" id="arrowhead--left" xmlns="http://www.w3.org/2000/svg"><path d="m11.828 12 2.83 2.828-1.415 1.415L9 12l4.243-4.243 1.414 1.415L11.828 12Z"/></symbol><symbol viewBox="0 0 24 24" id="arrowhead--right" xmlns="http://www.w3.org/2000/svg"><path d="m12.172 12-2.83-2.828 1.415-1.415L15 12l-4.243 4.243-1.414-1.415L12.172 12Z"/></symbol><symbol viewBox="0 0 24 24" id="attachment" xmlns="http://www.w3.org/2000/svg"><path d="M14 13.5V8a4 4 0 0 0-8 0v5.5a6.5 6.5 0 1 0 13 0V4h2v9.5a8.5 8.5 0 0 1-17 0V8a6 6 0 1 1 12 0v5.5a3.5 3.5 0 1 1-7 0V8h2v5.5a1.5 1.5 0 0 0 3 0Z"/></symbol><symbol viewBox="0 0 24 24" id="cart" xmlns="http://www.w3.org/2000/svg"><path d="M4 6.414.757 3.172l1.415-1.415L5.414 5h15.242a1 1 0 0 1 .958 1.287l-2.4 8a1 1 0 0 1-.958.713H6v2h11v2H5a1 1 0 0 1-1-1V6.414ZM6 7v6h11.512l1.8-6H6Zm-.5 16a1.5 1.5 0 1 1 0-3 1.5 1.5 0 0 1 0 3Zm12 0a1.5 1.5 0 1 1 0-3 1.5 1.5 0 0 1 0 3Z"/></symbol><symbol viewBox="0 0 24 24" id="check" xmlns="http://www.w3.org/2000/svg"><path d="m10 15.17 9.192-9.191 1.414 1.414L10 17.999l-6.364-6.364 1.414-1.414 4.95 4.95Z"/></symbol><symbol viewBox="0 0 24 24" id="chevron--down" xmlns="http://www.w3.org/2000/svg"><path d="m12 14-4-4h8l-4 4Z"/></symbol><symbol viewBox="0 0 24 24" id="close" xmlns="http://www.w3.org/2000/svg"><path d="m12 10.586 4.95-4.95 1.414 1.415-4.95 4.95 4.95 4.95-1.415 1.414-4.95-4.95-4.949 4.95-1.414-1.415 4.95-4.95-4.95-4.95L7.05 5.638l4.95 4.95Z"/></symbol><symbol viewBox="0 0 24 24" id="close--large" xmlns="http://www.w3.org/2000/svg"><path d="M10.586 12 2.793 4.207l1.414-1.414L12 10.586l7.793-7.793 1.414 1.414L13.414 12l7.793 7.793-1.414 1.414L12 13.414l-7.793 7.793-1.414-1.414L10.586 12Z"/></symbol><symbol viewBox="0 0 24 24" id="dot" xmlns="http://www.w3.org/2000/svg"><path d="M12 22c5.523 0 10-4.477 10-10S17.523 2 12 2 2 6.477 2 12s4.477 10 10 10Z"/></symbol><symbol viewBox="0 0 24 24" id="download" xmlns="http://www.w3.org/2000/svg"><path d="M13 12h3l-4 4-4-4h3V8h2v4Zm2-8H5v16h14V8h-4V4ZM3 2.992C3 2.444 3.447 2 3.999 2H16l5 5v13.993A1 1 0 0 1 20.007 22H3.993A1 1 0 0 1 3 21.008V2.992Z"/></symbol><symbol viewBox="0 0 32 32" id="interactive--favorite" xmlns="http://www.w3.org/2000/svg"><path fill-rule="evenodd" clip-rule="evenodd" d="M3.59 15.07c-1.432-4.74.588-10.068 5.28-11.671 2.468-.845 5.34.485 7.392 2.122 1.94-1.592 4.926-2.96 7.392-2.122 4.692 1.603 6.71 6.931 5.28 11.67-2.228 7.513-12.672 13.794-12.672 13.794S5.892 22.67 3.59 15.07Z"/><path fill-rule="evenodd" clip-rule="evenodd" d="m15.394 30.123-.004-.002-.007-.005-.027-.015-.098-.06a41.667 41.667 0 0 1-1.649-1.065 48.082 48.082 0 0 1-4.057-3.081c-3.022-2.568-6.53-6.254-7.83-10.453C.09 10.143 2.354 3.979 7.96 2.103c1.596-.534 3.257-.358 4.746.132 1.165.383 2.273.973 3.248 1.639 2.453-1.897 5.286-2.705 8.087-1.771 5.605 1.875 7.87 8.037 6.24 13.335-1.261 4.16-4.775 7.848-7.802 10.423a48.948 48.948 0 0 1-5.369 3.953 28.458 28.458 0 0 1-.462.285l-.026.015-.008.005-.002.001c-.32.19-.324-1.523-1.217.003ZM23.28 4.379c-2.017-.672-4.274-.06-6.48 1.91a1.2 1.2 0 0 1-1.539.051c-.981-.766-2.137-1.44-3.306-1.825-1.171-.386-2.278-.456-3.234-.136-4.118 1.378-6.038 6.031-4.706 10.354 1.088 3.515 4.144 6.829 7.091 9.333a45.686 45.686 0 0 0 4.892 3.61 46.535 46.535 0 0 0 4.924-3.644c2.961-2.517 6.012-5.828 7.061-9.293l.002-.005c1.332-4.323-.587-8.976-4.705-10.355Z"/><path d="M15.394 30.123c.375.22.842.218 1.217-.003-.32.19-.324-1.523-1.217.003Z"/></symbol><symbol viewBox="0 0 24 24" id="logo--telegram" xmlns="http://www.w3.org/2000/svg"><path d="M12 22C6.477 22 2 17.523 2 12S6.477 2 12 2s10 4.477 10 10-4.477 10-10 10Zm-3.11-8.83.013-.007.87 2.87c.112.311.266.367.453.341.188-.025.287-.126.41-.244l1.188-1.148 2.55 1.888c.466.257.801.124.917-.432l1.657-7.822c.183-.728-.137-1.02-.702-.788l-9.733 3.76c-.664.266-.66.638-.12.803l2.497.779Z"/></symbol><symbol viewBox="0 0 24 24" id="logo--whatsapp" xmlns="http://www.w3.org/2000/svg"><path d="m2.004 22 1.352-4.968A9.954 9.954 0 0 1 2 12C2 6.477 6.477 2 12 2s10 4.477 10 10-4.477 10-10 10a9.953 9.953 0 0 1-5.03-1.355L2.004 22ZM8.391 7.308a.961.961 0 0 0-.371.1 1.293 1.293 0 0 0-.294.228c-.12.113-.188.211-.261.306A2.729 2.729 0 0 0 6.9 9.62c.002.49.13.967.33 1.413.409.902 1.082 1.857 1.971 2.742.214.213.423.427.648.626a9.448 9.448 0 0 0 3.84 2.046l.569.087c.185.01.37-.004.556-.013a1.99 1.99 0 0 0 .833-.231 4.83 4.83 0 0 0 .383-.22s.043-.028.125-.09c.135-.1.218-.171.33-.288.083-.086.155-.187.21-.302.078-.163.156-.474.188-.733.024-.198.017-.306.014-.373-.004-.107-.093-.218-.19-.265l-.582-.261s-.87-.379-1.401-.621a.498.498 0 0 0-.177-.041.482.482 0 0 0-.378.127v-.002c-.005 0-.072.057-.795.933a.35.35 0 0 1-.368.13 1.418 1.418 0 0 1-.191-.066c-.124-.052-.167-.072-.252-.109l-.005-.002a6.011 6.011 0 0 1-1.57-1c-.126-.11-.243-.23-.363-.346a6.298 6.298 0 0 1-1.02-1.268l-.059-.095a.923.923 0 0 1-.102-.205c-.038-.147.061-.265.061-.265s.243-.266.356-.41a4.38 4.38 0 0 0 .263-.373c.118-.19.155-.385.093-.536-.28-.684-.57-1.365-.868-2.041-.059-.134-.234-.23-.393-.249a4.439 4.439 0 0 0-.162-.016 3.385 3.385 0 0 0-.403.005Z"/></symbol><symbol viewBox="0 0 24 24" id="mail" xmlns="http://www.w3.org/2000/svg"><path d="M3 3h18a1 1 0 0 1 1 1v16a1 1 0 0 1-1 1H3a1 1 0 0 1-1-1V4a1 1 0 0 1 1-1Zm9.06 8.683L5.648 6.238 4.353 7.762l7.72 6.555 7.581-6.56-1.308-1.513-6.286 5.439Z"/></symbol><symbol viewBox="0 0 24 24" id="menu" xmlns="http://www.w3.org/2000/svg"><path d="M3 4h18v2H3V4Zm6 7h12v2H9v-2Zm-6 7h18v2H3v-2Z"/></symbol><symbol viewBox="0 0 24 24" id="minus" xmlns="http://www.w3.org/2000/svg"><path d="M11 11h8v2H5v-2h6Z"/></symbol><symbol viewBox="0 0 24 24" id="phone" xmlns="http://www.w3.org/2000/svg"><path d="M21 16.42v3.536a1 1 0 0 1-.93.998c-.437.03-.794.046-1.07.046-8.837 0-16-7.163-16-16 0-.276.015-.633.046-1.07A1 1 0 0 1 4.044 3H7.58a.5.5 0 0 1 .498.45c.023.23.044.413.064.552A13.9 13.9 0 0 0 9.35 8.003c.095.2.033.439-.147.567l-2.158 1.542a13.047 13.047 0 0 0 6.844 6.844l1.54-2.154a.462.462 0 0 1 .573-.149 13.9 13.9 0 0 0 4 1.205c.139.02.322.042.55.064a.5.5 0 0 1 .448.498Z"/></symbol><symbol viewBox="0 0 24 24" id="plus" xmlns="http://www.w3.org/2000/svg"><path d="M11 11V5h2v6h6v2h-6v6h-2v-6H5v-2h6Z"/></symbol><symbol viewBox="0 0 24 24" id="search" xmlns="http://www.w3.org/2000/svg"><path d="m18.031 16.617 4.283 4.282-1.415 1.415-4.282-4.283A8.96 8.96 0 0 1 11 20c-4.968 0-9-4.032-9-9s4.032-9 9-9 9 4.032 9 9a8.96 8.96 0 0 1-1.969 5.617Zm-2.006-.742A6.977 6.977 0 0 0 18 11c0-3.868-3.133-7-7-7-3.868 0-7 3.132-7 7 0 3.867 3.132 7 7 7a6.977 6.977 0 0 0 4.875-1.975l.15-.15Z"/></symbol><symbol viewBox="0 0 24 24" id="success" xmlns="http://www.w3.org/2000/svg"><path d="M12 22C6.477 22 2 17.523 2 12S6.477 2 12 2s10 4.477 10 10-4.477 10-10 10Zm0-2a8 8 0 1 0 0-16.001A8 8 0 0 0 12 20Zm-.997-4L6.76 11.757l1.414-1.414 2.829 2.829 5.656-5.657 1.415 1.414L11.003 16Z"/></symbol><symbol viewBox="0 0 24 24" id="trash" xmlns="http://www.w3.org/2000/svg"><path d="M17 6h5v2h-2v13a1 1 0 0 1-1 1H5a1 1 0 0 1-1-1V8H2V6h5V3a1 1 0 0 1 1-1h8a1 1 0 0 1 1 1v3Zm1 2H6v12h12V8Zm-9 3h2v6H9v-6Zm4 0h2v6h-2v-6ZM9 4v2h6V4H9Z"/></symbol></svg>