<svg width="163" height="46" viewBox="0 0 163 46" fill="none" xmlns="http://www.w3.org/2000/svg">
<path fill-rule="evenodd" clip-rule="evenodd" d="M13.8849 23.9288C17.1219 14.9785 19.9861 7.06861 20.2499 6.35069L20.7289 5.0459H27.7643H34.7997L34.399 6.06074C34.1787 6.61919 33.3796 8.70684 32.6234 10.7C31.8672 12.6937 31.3186 14.3244 31.4038 14.3244C31.4896 14.3244 33.3697 12.2367 35.5815 9.68514L39.6037 5.0459H47.8824H56.1617L51.6524 10.1688C49.1727 12.986 42.1854 21.0722 36.1254 28.1383L25.1072 40.9855L16.5536 40.9925L8 41V40.6011C8 40.3819 10.6484 32.879 13.8849 23.9288Z" fill="url(#paint0_linear_11_351)"/>
<path fill-rule="evenodd" clip-rule="evenodd" d="M44.3821 23.056L28.8627 41H54.1721H79.4815C79.4815 41 81.1909 40.9448 82.2279 40.0846C83.3118 39.1854 84.3237 36.8125 84.3237 36.8125C84.823 35.847 87.2887 29.3509 89.8032 22.3775L94.3746 9.69848C94.83 8.14588 94.8535 5.04171 91.304 5.0459C86.5772 5.04613 75.603 5.07896 75.603 5.07896L59.9015 5.11201L44.3821 23.056ZM75.6471 23.023C77.3445 18.3982 78.7369 14.5488 78.7409 14.4694C78.745 14.3899 76.0739 14.3389 72.8044 14.3563L66.8604 14.3876L59.7409 23.0682L52.6214 31.7488L62.5911 31.5905L72.5609 31.4316L75.6471 23.023Z" fill="white"/>
<path d="M119.158 23.0229L103.974 40.9544H86.2872L99.3351 5.04581H106.4H113.464L111.528 9.97733L109.592 14.9083L112.292 11.8725C113.778 10.2023 115.775 7.97317 116.732 6.91833L118.472 5L126.42 5.16759L134.368 5.33577L119.158 23.0229Z" fill="url(#paint1_linear_11_351)"/>
<path d="M125.013 21.1463C117.447 29.9928 110.597 37.9369 109.79 38.7998C108.984 39.6633 108.324 40.5111 108.324 40.6845C108.324 40.8579 116.381 40.9999 126.229 40.9999H144.136L147.757 36.6051L151.817 31.6759C151.817 31.6759 147.633 31.6785 142.519 31.591L133.222 31.4315L143.969 18.499C149.88 11.3859 154.716 5.44885 154.716 5.30619C154.716 5.16295 151.128 5.04929 146.742 5.05393L138.769 5.06205L125.013 21.1463Z" fill="white"/>
<path d="M13.8849 23.9288C17.1219 14.9785 19.9861 7.06861 20.2499 6.35069L20.7289 5.0459H27.7643H34.7997L34.399 6.06073C34.1787 6.61918 33.3796 8.70684 32.6234 10.7C31.8672 12.6937 31.3186 14.3244 31.4038 14.3244L21.9177 41L16.5536 40.9925L8 41V40.6011C8 40.3819 10.6484 32.879 13.8849 23.9288Z" fill="white"/>
<path d="M92.52 23.9288C95.7571 14.9785 98.6212 7.06861 98.8851 6.35069L99.3641 5.0459H106.4H113.435L113.034 6.06073C112.814 6.61918 112.015 8.70684 111.259 10.7C110.502 12.6937 109.954 14.3244 110.039 14.3244L100.553 41L95.1888 40.9925L86.6352 41L86.2872 40.9544C86.2872 40.9544 89.2836 32.879 92.52 23.9288Z" fill="white"/>
<defs>
<linearGradient id="paint0_linear_11_351" x1="32.2992" y1="5.62486" x2="7.45522" y2="25.5655" gradientUnits="userSpaceOnUse">
<stop stop-color="#ECECEC"/>
<stop offset="1" stop-color="#BBBBBC"/>
</linearGradient>
<linearGradient id="paint1_linear_11_351" x1="105.491" y1="5.5797" x2="82.4535" y2="20.1738" gradientUnits="userSpaceOnUse">
<stop stop-color="#ECECEC"/>
<stop offset="1" stop-color="#BBBBBC"/>
</linearGradient>
</defs>
</svg>
