<svg width="131" height="32" viewBox="0 0 131 32" fill="none" xmlns="http://www.w3.org/2000/svg">
<g opacity="0.5" clip-path="url(#clip0_173_6923)">
<path fill-rule="evenodd" clip-rule="evenodd" d="M5.02391 16.8256C7.90127 8.86977 10.4472 1.83874 10.6817 1.20059L11.1075 0.0407753H17.3612H23.6149L23.2587 0.94285C23.0628 1.43925 22.3525 3.29495 21.6803 5.06662C21.0082 6.83881 20.5205 8.28832 20.5963 8.28832C20.6726 8.28832 22.3438 6.43262 24.3098 4.16455L27.8851 0.0407753H35.2439H42.6033L38.595 4.59445C36.3909 7.09861 30.1799 14.2863 24.7933 20.5674L14.9993 31.9871L7.39611 31.9933L-0.207092 32V31.6454C-0.207092 31.4505 2.14707 24.7813 5.02391 16.8256Z" fill="url(#paint0_linear_173_6923)"/>
<path fill-rule="evenodd" clip-rule="evenodd" d="M32.1326 16.0498L18.3375 32H40.8347H63.332C63.332 32 64.8515 31.9509 65.7732 31.1863C66.7367 30.387 67.6362 28.2778 67.6362 28.2778C68.08 27.4195 70.2718 21.6452 72.5069 15.4467L76.5703 4.1764C76.9751 2.79631 76.996 0.0370492 73.8409 0.0407753C69.6393 0.040974 59.8845 0.0701571 59.8845 0.0701571L45.9276 0.099539L32.1326 16.0498ZM59.9237 16.0204C61.4325 11.9095 62.6701 8.48781 62.6737 8.41719C62.6773 8.34657 60.3031 8.3012 57.3968 8.31667L52.1133 8.3445L45.7848 16.0606L39.4564 23.7767L48.3184 23.636L57.1803 23.4947L59.9237 16.0204Z" fill="#A0A0A1"/>
<path d="M98.6 16.0203L85.1034 31.9595H69.3815L80.9796 0.0407222H87.2591H93.5391L91.8179 4.42429L90.0973 8.80735L92.4973 6.10885C93.8174 4.62429 95.5932 2.64282 96.4438 1.70518L97.9902 0L105.055 0.148971L112.12 0.298458L98.6 16.0203Z" fill="url(#paint1_linear_173_6923)"/>
<path d="M103.804 14.3523C97.0794 22.2158 90.9906 29.2772 90.2731 30.0442C89.556 30.8118 88.9694 31.5654 88.9694 31.7195C88.9694 31.8737 96.1319 31.9999 104.886 31.9999H120.802L124.021 28.0934L127.63 23.7119C127.63 23.7119 123.911 23.7143 119.365 23.6364L111.101 23.4947L120.654 11.9991C125.908 5.67637 130.207 0.398975 130.207 0.272169C130.207 0.144847 127.018 0.043815 123.119 0.0479387L116.032 0.0551554L103.804 14.3523Z" fill="#A0A0A1"/>
<path d="M5.02391 16.8255C7.90127 8.86976 10.4472 1.83874 10.6817 1.20058L11.1075 0.0407715H17.3612H23.6149L23.2587 0.942847C23.0628 1.43925 22.3525 3.29494 21.6803 5.06662C21.0082 6.83881 20.5205 8.28831 20.5963 8.28831L12.1642 32L7.39611 31.9933L-0.207092 32V31.6453C-0.207092 31.4505 2.14707 24.7813 5.02391 16.8255Z" fill="#A0A0A1"/>
<path d="M74.9218 16.8255C77.7992 8.86976 80.3451 1.83874 80.5796 1.20058L81.0054 0.0407715H87.2591H93.5128L93.1566 0.942847C92.9607 1.43925 92.2504 3.29494 91.5782 5.06662C90.9061 6.83881 90.4184 8.28831 90.4942 8.28831L82.0621 32L77.294 31.9933L69.6908 32L69.3815 31.9595C69.3815 31.9595 72.045 24.7813 74.9218 16.8255Z" fill="#A0A0A1"/>
</g>
<defs>
<linearGradient id="paint0_linear_173_6923" x1="21.3922" y1="0.555406" x2="-0.691343" y2="18.2804" gradientUnits="userSpaceOnUse">
<stop stop-color="#C4C4C5"/>
<stop offset="1" stop-color="#BBBBBC"/>
</linearGradient>
<linearGradient id="paint1_linear_173_6923" x1="86.4512" y1="0.51529" x2="65.9738" y2="13.4878" gradientUnits="userSpaceOnUse">
<stop stop-color="#C4C4C5"/>
<stop offset="1" stop-color="#BBBBBC"/>
</linearGradient>
<clipPath id="clip0_173_6923">
<rect width="130" height="32" fill="white" transform="translate(0.5)"/>
</clipPath>
</defs>
</svg>
