<svg width="163" height="40" viewBox="0 0 163 40" fill="none" xmlns="http://www.w3.org/2000/svg">
<g clip-path="url(#clip0_4_96)">
<path fill-rule="evenodd" clip-rule="evenodd" d="M6.52984 21.032C10.1265 11.0873 13.3089 2.29849 13.6021 1.50079L14.1343 0.0510301H21.9515H29.7686L29.3233 1.17862C29.0785 1.79912 28.1906 4.11874 27.3504 6.33334C26.5102 8.54858 25.9006 10.3605 25.9953 10.3605C26.0907 10.3605 28.1796 8.04084 30.6372 5.20574L35.1063 0.0510301H44.3049H53.5041L48.4937 5.74312C45.7385 8.87332 37.9749 17.858 31.2415 25.7093L18.9991 39.9839L9.49509 39.9917L-0.00891113 40.0001V39.5568C-0.00891113 39.3132 2.93379 30.9767 6.52984 21.032Z" fill="url(#paint0_linear_4_96)"/>
<path fill-rule="evenodd" clip-rule="evenodd" d="M40.4156 20.0623L23.1718 40.0001H51.2934H79.4149C79.4149 40.0001 81.3143 39.9387 82.4665 38.9829C83.6708 37.9839 84.7952 35.3473 84.7952 35.3473C85.3499 34.2745 88.0897 27.0566 90.8835 19.3084L95.9628 5.22056C96.4689 3.49544 96.4949 0.0463725 92.5511 0.0510301C87.2991 0.0512786 75.1056 0.0877574 75.1056 0.0877574L57.6595 0.124485L40.4156 20.0623ZM75.1546 20.0255C77.0405 14.8869 78.5876 10.6098 78.5921 10.5215C78.5966 10.4333 75.6288 10.3766 71.996 10.3959L65.3915 10.4307L57.481 20.0758L49.5704 29.7209L60.6479 29.545L71.7254 29.3685L75.1546 20.0255Z" fill="#114B9B"/>
<path d="M123.5 20.0254L106.629 39.9493H86.9769L101.474 0.0509027H109.324H117.174L115.022 5.53036L112.872 11.0092L115.872 7.63606C117.522 5.78037 119.742 3.30353 120.805 2.13147L122.738 0L131.568 0.186214L140.4 0.373072L123.5 20.0254Z" fill="url(#paint1_linear_4_96)"/>
<path d="M130.005 17.9403C121.599 27.7697 113.988 36.5965 113.091 37.5553C112.195 38.5147 111.462 39.4568 111.462 39.6494C111.462 39.8421 120.415 39.9999 131.357 39.9999H151.253L155.277 35.1168L159.787 29.6399C159.787 29.6399 155.138 29.6428 149.457 29.5455L139.126 29.3683L151.067 14.9989C157.635 7.09546 163.009 0.498719 163.009 0.340211C163.009 0.181059 159.022 0.0547687 154.149 0.0599234L145.29 0.0689443L130.005 17.9403Z" fill="#114B9B"/>
<path d="M6.52984 21.032C10.1265 11.0873 13.3089 2.29848 13.6021 1.50079L14.1343 0.0510254H21.9515H29.7686L29.3233 1.17862C29.0785 1.79912 28.1906 4.11874 27.3504 6.33333C26.5102 8.54857 25.9006 10.3605 25.9953 10.3605L15.4552 40.0001L9.49509 39.9917L-0.00891113 40.0001V39.5568C-0.00891113 39.3132 2.93379 30.9767 6.52984 21.032Z" fill="#114B9B"/>
<path d="M93.9022 21.032C97.4989 11.0873 100.681 2.29848 100.974 1.50079L101.507 0.0510254H109.324H117.141L116.696 1.17862C116.451 1.79912 115.563 4.11874 114.723 6.33333C113.883 8.54857 113.273 10.3605 113.368 10.3605L102.828 40.0001L96.8675 39.9917L87.3635 40.0001L86.9769 39.9494C86.9769 39.9494 90.3062 30.9767 93.9022 21.032Z" fill="#114B9B"/>
</g>
<defs>
<linearGradient id="paint0_linear_4_96" x1="26.9902" y1="0.694319" x2="-0.614224" y2="22.8506" gradientUnits="userSpaceOnUse">
<stop stop-color="#29A6DE"/>
<stop offset="1" stop-color="#1664A7"/>
</linearGradient>
<linearGradient id="paint1_linear_4_96" x1="108.314" y1="0.644113" x2="82.7172" y2="16.8598" gradientUnits="userSpaceOnUse">
<stop stop-color="#29A6DE"/>
<stop offset="1" stop-color="#1664A7"/>
</linearGradient>
<clipPath id="clip0_4_96">
<rect width="163" height="40" fill="white"/>
</clipPath>
</defs>
</svg>
